<mxfile host="app.diagrams.net" modified="2024-07-16T00:36:58.071Z" agent="Mozilla/5.0 (Macintosh; Intel Mac OS X 10_15_7) AppleWebKit/537.36 (KHTML, like Gecko) Chrome/126.0.0.0 Safari/537.36" etag="Vr5zphHJ71AUDhYyk5lI" version="24.6.5" type="github">
  <diagram name="페이지-1" id="wmkCF2jXXFbr9KnxZ27l">
    <mxGraphModel dx="1434" dy="795" grid="1" gridSize="10" guides="1" tooltips="1" connect="1" arrows="1" fold="1" page="1" pageScale="1" pageWidth="827" pageHeight="1169" math="0" shadow="0">
      <root>
        <mxCell id="0" />
        <mxCell id="1" parent="0" />
        <mxCell id="kS1ZVvwmEGQouYJON_11-14" value="JobService" style="swimlane;fontStyle=1;align=center;verticalAlign=top;childLayout=stackLayout;horizontal=1;startSize=26;horizontalStack=0;resizeParent=1;resizeParentMax=0;resizeLast=0;collapsible=1;marginBottom=0;whiteSpace=wrap;html=1;" vertex="1" parent="1">
          <mxGeometry x="400.5" y="170" width="130" height="52" as="geometry" />
        </mxCell>
        <mxCell id="kS1ZVvwmEGQouYJON_11-17" value="+ runJob()" style="text;strokeColor=none;fillColor=none;align=left;verticalAlign=top;spacingLeft=4;spacingRight=4;overflow=hidden;rotatable=0;points=[[0,0.5],[1,0.5]];portConstraint=eastwest;whiteSpace=wrap;html=1;" vertex="1" parent="kS1ZVvwmEGQouYJON_11-14">
          <mxGeometry y="26" width="130" height="26" as="geometry" />
        </mxCell>
        <mxCell id="kS1ZVvwmEGQouYJON_11-18" value="StepService" style="swimlane;fontStyle=1;align=center;verticalAlign=top;childLayout=stackLayout;horizontal=1;startSize=26;horizontalStack=0;resizeParent=1;resizeParentMax=0;resizeLast=0;collapsible=1;marginBottom=0;whiteSpace=wrap;html=1;" vertex="1" parent="1">
          <mxGeometry x="391" y="300" width="149" height="52" as="geometry" />
        </mxCell>
        <mxCell id="kS1ZVvwmEGQouYJON_11-20" value="+ executeStep()" style="text;strokeColor=none;fillColor=none;align=left;verticalAlign=top;spacingLeft=4;spacingRight=4;overflow=hidden;rotatable=0;points=[[0,0.5],[1,0.5]];portConstraint=eastwest;whiteSpace=wrap;html=1;" vertex="1" parent="kS1ZVvwmEGQouYJON_11-18">
          <mxGeometry y="26" width="149" height="26" as="geometry" />
        </mxCell>
        <mxCell id="kS1ZVvwmEGQouYJON_11-21" value="stepService" style="html=1;verticalAlign=bottom;endArrow=block;curved=0;rounded=0;entryX=0.5;entryY=0;entryDx=0;entryDy=0;" edge="1" parent="1" target="kS1ZVvwmEGQouYJON_11-18">
          <mxGeometry x="0.7446" y="34" width="80" relative="1" as="geometry">
            <mxPoint x="466" y="220" as="sourcePoint" />
            <mxPoint x="450" y="210" as="targetPoint" />
            <mxPoint as="offset" />
          </mxGeometry>
        </mxCell>
        <mxCell id="kS1ZVvwmEGQouYJON_11-36" value="" style="group" vertex="1" connectable="0" parent="1">
          <mxGeometry x="147" y="447" width="320" height="227" as="geometry" />
        </mxCell>
        <mxCell id="kS1ZVvwmEGQouYJON_11-24" value="&lt;span style=&quot;font-weight: 400;&quot;&gt;«interface»&lt;/span&gt;&lt;br style=&quot;font-weight: 400;&quot;&gt;&lt;b&gt;ScmService&lt;/b&gt;" style="swimlane;fontStyle=1;align=center;verticalAlign=top;childLayout=stackLayout;horizontal=1;startSize=38;horizontalStack=0;resizeParent=1;resizeParentMax=0;resizeLast=0;collapsible=1;marginBottom=0;whiteSpace=wrap;html=1;" vertex="1" parent="kS1ZVvwmEGQouYJON_11-36">
          <mxGeometry x="80" width="140" height="82" as="geometry" />
        </mxCell>
        <mxCell id="kS1ZVvwmEGQouYJON_11-27" value="+ isConnected(&lt;span style=&quot;background-color: initial;&quot;&gt;)&lt;/span&gt;&lt;div&gt;&lt;span style=&quot;background-color: initial;&quot;&gt;+ cloneProject()&lt;/span&gt;&lt;/div&gt;" style="text;strokeColor=none;fillColor=none;align=left;verticalAlign=top;spacingLeft=4;spacingRight=4;overflow=hidden;rotatable=0;points=[[0,0.5],[1,0.5]];portConstraint=eastwest;whiteSpace=wrap;html=1;" vertex="1" parent="kS1ZVvwmEGQouYJON_11-24">
          <mxGeometry y="38" width="140" height="44" as="geometry" />
        </mxCell>
        <mxCell id="kS1ZVvwmEGQouYJON_11-28" value="GitService" style="swimlane;fontStyle=1;align=center;verticalAlign=top;childLayout=stackLayout;horizontal=1;startSize=26;horizontalStack=0;resizeParent=1;resizeParentMax=0;resizeLast=0;collapsible=1;marginBottom=0;whiteSpace=wrap;html=1;" vertex="1" parent="kS1ZVvwmEGQouYJON_11-36">
          <mxGeometry y="147" width="130" height="72" as="geometry" />
        </mxCell>
        <mxCell id="kS1ZVvwmEGQouYJON_11-30" value="+ isConnected(&lt;span style=&quot;background-color: initial;&quot;&gt;)&lt;/span&gt;&lt;div&gt;&lt;span style=&quot;background-color: initial;&quot;&gt;+ cloneProject()&lt;/span&gt;&lt;/div&gt;" style="text;strokeColor=none;fillColor=none;align=left;verticalAlign=top;spacingLeft=4;spacingRight=4;overflow=hidden;rotatable=0;points=[[0,0.5],[1,0.5]];portConstraint=eastwest;whiteSpace=wrap;html=1;" vertex="1" parent="kS1ZVvwmEGQouYJON_11-28">
          <mxGeometry y="26" width="130" height="46" as="geometry" />
        </mxCell>
        <mxCell id="kS1ZVvwmEGQouYJON_11-31" value="SvnService" style="swimlane;fontStyle=1;align=center;verticalAlign=top;childLayout=stackLayout;horizontal=1;startSize=26;horizontalStack=0;resizeParent=1;resizeParentMax=0;resizeLast=0;collapsible=1;marginBottom=0;whiteSpace=wrap;html=1;" vertex="1" parent="kS1ZVvwmEGQouYJON_11-36">
          <mxGeometry x="190" y="147" width="130" height="72" as="geometry" />
        </mxCell>
        <mxCell id="kS1ZVvwmEGQouYJON_11-33" value="+ isConnected(&lt;span style=&quot;background-color: initial;&quot;&gt;)&lt;/span&gt;&lt;div&gt;&lt;span style=&quot;background-color: initial;&quot;&gt;+ cloneProject()&lt;/span&gt;&lt;/div&gt;" style="text;strokeColor=none;fillColor=none;align=left;verticalAlign=top;spacingLeft=4;spacingRight=4;overflow=hidden;rotatable=0;points=[[0,0.5],[1,0.5]];portConstraint=eastwest;whiteSpace=wrap;html=1;" vertex="1" parent="kS1ZVvwmEGQouYJON_11-31">
          <mxGeometry y="26" width="130" height="46" as="geometry" />
        </mxCell>
        <mxCell id="kS1ZVvwmEGQouYJON_11-34" value="" style="endArrow=block;dashed=1;endFill=0;endSize=12;html=1;rounded=0;exitX=0.5;exitY=0;exitDx=0;exitDy=0;entryX=0.486;entryY=0.955;entryDx=0;entryDy=0;entryPerimeter=0;" edge="1" parent="kS1ZVvwmEGQouYJON_11-36" source="kS1ZVvwmEGQouYJON_11-28" target="kS1ZVvwmEGQouYJON_11-27">
          <mxGeometry width="160" relative="1" as="geometry">
            <mxPoint x="180" y="10" as="sourcePoint" />
            <mxPoint x="340" y="10" as="targetPoint" />
            <Array as="points">
              <mxPoint x="65" y="120" />
              <mxPoint x="148" y="120" />
            </Array>
          </mxGeometry>
        </mxCell>
        <mxCell id="kS1ZVvwmEGQouYJON_11-35" value="" style="endArrow=none;dashed=1;endFill=0;endSize=12;html=1;rounded=0;exitX=0.5;exitY=0;exitDx=0;exitDy=0;" edge="1" parent="kS1ZVvwmEGQouYJON_11-36" source="kS1ZVvwmEGQouYJON_11-31">
          <mxGeometry width="160" relative="1" as="geometry">
            <mxPoint x="75" y="157" as="sourcePoint" />
            <mxPoint x="150" y="120" as="targetPoint" />
            <Array as="points">
              <mxPoint x="255" y="120" />
              <mxPoint x="150" y="120" />
            </Array>
          </mxGeometry>
        </mxCell>
        <mxCell id="kS1ZVvwmEGQouYJON_11-38" value="scmService" style="html=1;verticalAlign=bottom;endArrow=block;curved=0;rounded=0;exitX=0;exitY=-0.115;exitDx=0;exitDy=0;entryX=0.45;entryY=0.024;entryDx=0;entryDy=0;exitPerimeter=0;dashed=1;entryPerimeter=0;" edge="1" parent="1" source="kS1ZVvwmEGQouYJON_11-20" target="kS1ZVvwmEGQouYJON_11-24">
          <mxGeometry x="0.9228" y="37" width="80" relative="1" as="geometry">
            <mxPoint x="290" y="336" as="sourcePoint" />
            <mxPoint x="401" y="336" as="targetPoint" />
            <mxPoint as="offset" />
            <Array as="points">
              <mxPoint x="290" y="323" />
              <mxPoint x="290" y="420" />
            </Array>
          </mxGeometry>
        </mxCell>
        <mxCell id="kS1ZVvwmEGQouYJON_11-39" value="" style="group" vertex="1" connectable="0" parent="1">
          <mxGeometry x="562" y="450" width="320" height="227" as="geometry" />
        </mxCell>
        <mxCell id="kS1ZVvwmEGQouYJON_11-40" value="&lt;span style=&quot;font-weight: 400;&quot;&gt;«interface»&lt;/span&gt;&lt;br style=&quot;font-weight: 400;&quot;&gt;&lt;b&gt;BuildService&lt;/b&gt;" style="swimlane;fontStyle=1;align=center;verticalAlign=top;childLayout=stackLayout;horizontal=1;startSize=38;horizontalStack=0;resizeParent=1;resizeParentMax=0;resizeLast=0;collapsible=1;marginBottom=0;whiteSpace=wrap;html=1;" vertex="1" parent="kS1ZVvwmEGQouYJON_11-39">
          <mxGeometry x="80" width="140" height="70" as="geometry" />
        </mxCell>
        <mxCell id="kS1ZVvwmEGQouYJON_11-41" value="+ executeBuild(&lt;span style=&quot;background-color: initial;&quot;&gt;)&lt;br&gt;&lt;/span&gt;" style="text;strokeColor=none;fillColor=none;align=left;verticalAlign=top;spacingLeft=4;spacingRight=4;overflow=hidden;rotatable=0;points=[[0,0.5],[1,0.5]];portConstraint=eastwest;whiteSpace=wrap;html=1;" vertex="1" parent="kS1ZVvwmEGQouYJON_11-40">
          <mxGeometry y="38" width="140" height="32" as="geometry" />
        </mxCell>
        <mxCell id="kS1ZVvwmEGQouYJON_11-42" value="GradleService" style="swimlane;fontStyle=1;align=center;verticalAlign=top;childLayout=stackLayout;horizontal=1;startSize=26;horizontalStack=0;resizeParent=1;resizeParentMax=0;resizeLast=0;collapsible=1;marginBottom=0;whiteSpace=wrap;html=1;" vertex="1" parent="kS1ZVvwmEGQouYJON_11-39">
          <mxGeometry y="147" width="130" height="60" as="geometry" />
        </mxCell>
        <mxCell id="kS1ZVvwmEGQouYJON_11-43" value="+ executeBuild(&lt;span style=&quot;background-color: initial;&quot;&gt;)&lt;/span&gt;" style="text;strokeColor=none;fillColor=none;align=left;verticalAlign=top;spacingLeft=4;spacingRight=4;overflow=hidden;rotatable=0;points=[[0,0.5],[1,0.5]];portConstraint=eastwest;whiteSpace=wrap;html=1;" vertex="1" parent="kS1ZVvwmEGQouYJON_11-42">
          <mxGeometry y="26" width="130" height="34" as="geometry" />
        </mxCell>
        <mxCell id="kS1ZVvwmEGQouYJON_11-44" value="MavenService" style="swimlane;fontStyle=1;align=center;verticalAlign=top;childLayout=stackLayout;horizontal=1;startSize=26;horizontalStack=0;resizeParent=1;resizeParentMax=0;resizeLast=0;collapsible=1;marginBottom=0;whiteSpace=wrap;html=1;" vertex="1" parent="kS1ZVvwmEGQouYJON_11-39">
          <mxGeometry x="190" y="147" width="130" height="60" as="geometry" />
        </mxCell>
        <mxCell id="kS1ZVvwmEGQouYJON_11-45" value="+ executeBuild(&lt;span style=&quot;background-color: initial;&quot;&gt;)&lt;/span&gt;" style="text;strokeColor=none;fillColor=none;align=left;verticalAlign=top;spacingLeft=4;spacingRight=4;overflow=hidden;rotatable=0;points=[[0,0.5],[1,0.5]];portConstraint=eastwest;whiteSpace=wrap;html=1;" vertex="1" parent="kS1ZVvwmEGQouYJON_11-44">
          <mxGeometry y="26" width="130" height="34" as="geometry" />
        </mxCell>
        <mxCell id="kS1ZVvwmEGQouYJON_11-46" value="" style="endArrow=block;dashed=1;endFill=0;endSize=12;html=1;rounded=0;exitX=0.5;exitY=0;exitDx=0;exitDy=0;entryX=0.486;entryY=0.955;entryDx=0;entryDy=0;entryPerimeter=0;" edge="1" parent="kS1ZVvwmEGQouYJON_11-39" source="kS1ZVvwmEGQouYJON_11-42" target="kS1ZVvwmEGQouYJON_11-41">
          <mxGeometry width="160" relative="1" as="geometry">
            <mxPoint x="180" y="10" as="sourcePoint" />
            <mxPoint x="340" y="10" as="targetPoint" />
            <Array as="points">
              <mxPoint x="65" y="120" />
              <mxPoint x="148" y="120" />
            </Array>
          </mxGeometry>
        </mxCell>
        <mxCell id="kS1ZVvwmEGQouYJON_11-47" value="" style="endArrow=none;dashed=1;endFill=0;endSize=12;html=1;rounded=0;exitX=0.5;exitY=0;exitDx=0;exitDy=0;" edge="1" parent="kS1ZVvwmEGQouYJON_11-39" source="kS1ZVvwmEGQouYJON_11-44">
          <mxGeometry width="160" relative="1" as="geometry">
            <mxPoint x="75" y="157" as="sourcePoint" />
            <mxPoint x="150" y="120" as="targetPoint" />
            <Array as="points">
              <mxPoint x="255" y="120" />
              <mxPoint x="150" y="120" />
            </Array>
          </mxGeometry>
        </mxCell>
        <mxCell id="kS1ZVvwmEGQouYJON_11-48" value="buildService" style="html=1;verticalAlign=bottom;endArrow=block;curved=0;rounded=0;exitX=1;exitY=-0.077;exitDx=0;exitDy=0;entryX=0.5;entryY=0;entryDx=0;entryDy=0;exitPerimeter=0;dashed=1;" edge="1" parent="1">
          <mxGeometry x="0.9365" y="38" width="80" relative="1" as="geometry">
            <mxPoint x="540" y="323.99800000000005" as="sourcePoint" />
            <mxPoint x="712" y="450" as="targetPoint" />
            <mxPoint as="offset" />
            <Array as="points">
              <mxPoint x="710" y="324" />
            </Array>
          </mxGeometry>
        </mxCell>
        <mxCell id="kS1ZVvwmEGQouYJON_11-49" value="" style="group" vertex="1" connectable="0" parent="1">
          <mxGeometry x="889" y="450" width="320" height="227" as="geometry" />
        </mxCell>
        <mxCell id="kS1ZVvwmEGQouYJON_11-50" value="&lt;span style=&quot;font-weight: 400;&quot;&gt;«interface»&lt;/span&gt;&lt;br style=&quot;font-weight: 400;&quot;&gt;&lt;b&gt;SNSService&lt;/b&gt;" style="swimlane;fontStyle=1;align=center;verticalAlign=top;childLayout=stackLayout;horizontal=1;startSize=38;horizontalStack=0;resizeParent=1;resizeParentMax=0;resizeLast=0;collapsible=1;marginBottom=0;whiteSpace=wrap;html=1;" vertex="1" parent="kS1ZVvwmEGQouYJON_11-49">
          <mxGeometry x="80" width="140" height="70" as="geometry" />
        </mxCell>
        <mxCell id="kS1ZVvwmEGQouYJON_11-51" value="+ sendMessage(&lt;span style=&quot;background-color: initial;&quot;&gt;)&lt;br&gt;&lt;/span&gt;" style="text;strokeColor=none;fillColor=none;align=left;verticalAlign=top;spacingLeft=4;spacingRight=4;overflow=hidden;rotatable=0;points=[[0,0.5],[1,0.5]];portConstraint=eastwest;whiteSpace=wrap;html=1;" vertex="1" parent="kS1ZVvwmEGQouYJON_11-50">
          <mxGeometry y="38" width="140" height="32" as="geometry" />
        </mxCell>
        <mxCell id="kS1ZVvwmEGQouYJON_11-52" value="SlackService" style="swimlane;fontStyle=1;align=center;verticalAlign=top;childLayout=stackLayout;horizontal=1;startSize=26;horizontalStack=0;resizeParent=1;resizeParentMax=0;resizeLast=0;collapsible=1;marginBottom=0;whiteSpace=wrap;html=1;" vertex="1" parent="kS1ZVvwmEGQouYJON_11-49">
          <mxGeometry x="83" y="147" width="130" height="60" as="geometry" />
        </mxCell>
        <mxCell id="kS1ZVvwmEGQouYJON_11-53" value="+ sendMessage(&lt;span style=&quot;background-color: initial;&quot;&gt;)&lt;/span&gt;" style="text;strokeColor=none;fillColor=none;align=left;verticalAlign=top;spacingLeft=4;spacingRight=4;overflow=hidden;rotatable=0;points=[[0,0.5],[1,0.5]];portConstraint=eastwest;whiteSpace=wrap;html=1;" vertex="1" parent="kS1ZVvwmEGQouYJON_11-52">
          <mxGeometry y="26" width="130" height="34" as="geometry" />
        </mxCell>
        <mxCell id="kS1ZVvwmEGQouYJON_11-56" value="" style="endArrow=block;dashed=1;endFill=0;endSize=12;html=1;rounded=0;exitX=0.5;exitY=0;exitDx=0;exitDy=0;entryX=0.486;entryY=0.955;entryDx=0;entryDy=0;entryPerimeter=0;" edge="1" parent="kS1ZVvwmEGQouYJON_11-49" source="kS1ZVvwmEGQouYJON_11-52" target="kS1ZVvwmEGQouYJON_11-51">
          <mxGeometry width="160" relative="1" as="geometry">
            <mxPoint x="180" y="10" as="sourcePoint" />
            <mxPoint x="340" y="10" as="targetPoint" />
            <Array as="points">
              <mxPoint x="148" y="120" />
            </Array>
          </mxGeometry>
        </mxCell>
        <mxCell id="kS1ZVvwmEGQouYJON_11-58" value="snsService" style="html=1;verticalAlign=bottom;endArrow=block;curved=0;rounded=0;entryX=0.5;entryY=0;entryDx=0;entryDy=0;dashed=1;" edge="1" parent="1" target="kS1ZVvwmEGQouYJON_11-50">
          <mxGeometry x="0.9639" y="40" width="80" relative="1" as="geometry">
            <mxPoint x="538" y="330" as="sourcePoint" />
            <mxPoint x="1080" y="452" as="targetPoint" />
            <mxPoint as="offset" />
            <Array as="points">
              <mxPoint x="1040" y="330" />
            </Array>
          </mxGeometry>
        </mxCell>
        <mxCell id="kS1ZVvwmEGQouYJON_11-60" value="RemoteService" style="swimlane;fontStyle=1;align=center;verticalAlign=top;childLayout=stackLayout;horizontal=1;startSize=26;horizontalStack=0;resizeParent=1;resizeParentMax=0;resizeLast=0;collapsible=1;marginBottom=0;whiteSpace=wrap;html=1;" vertex="1" parent="1">
          <mxGeometry x="724" y="222" width="130" height="80" as="geometry" />
        </mxCell>
        <mxCell id="kS1ZVvwmEGQouYJON_11-61" value="+ init()&lt;div&gt;+ executeScript()&lt;div&gt;+ upload()&lt;/div&gt;&lt;/div&gt;" style="text;strokeColor=none;fillColor=none;align=left;verticalAlign=top;spacingLeft=4;spacingRight=4;overflow=hidden;rotatable=0;points=[[0,0.5],[1,0.5]];portConstraint=eastwest;whiteSpace=wrap;html=1;" vertex="1" parent="kS1ZVvwmEGQouYJON_11-60">
          <mxGeometry y="26" width="130" height="54" as="geometry" />
        </mxCell>
        <mxCell id="kS1ZVvwmEGQouYJON_11-62" value="remoteService" style="html=1;verticalAlign=bottom;endArrow=block;curved=0;rounded=0;entryX=0.015;entryY=0;entryDx=0;entryDy=0;exitX=1;exitY=0.5;exitDx=0;exitDy=0;entryPerimeter=0;" edge="1" parent="1" source="kS1ZVvwmEGQouYJON_11-20" target="kS1ZVvwmEGQouYJON_11-61">
          <mxGeometry x="0.71" y="-23" width="80" relative="1" as="geometry">
            <mxPoint x="476" y="230" as="sourcePoint" />
            <mxPoint x="476" y="310" as="targetPoint" />
            <mxPoint as="offset" />
            <Array as="points">
              <mxPoint x="620" y="339" />
              <mxPoint x="620" y="247" />
            </Array>
          </mxGeometry>
        </mxCell>
        <mxCell id="kS1ZVvwmEGQouYJON_11-64" value="BuildFileService" style="swimlane;fontStyle=1;align=center;verticalAlign=top;childLayout=stackLayout;horizontal=1;startSize=26;horizontalStack=0;resizeParent=1;resizeParentMax=0;resizeLast=0;collapsible=1;marginBottom=0;whiteSpace=wrap;html=1;" vertex="1" parent="1">
          <mxGeometry x="110" y="220" width="130" height="52" as="geometry" />
        </mxCell>
        <mxCell id="kS1ZVvwmEGQouYJON_11-67" value="+ create()" style="text;strokeColor=none;fillColor=none;align=left;verticalAlign=top;spacingLeft=4;spacingRight=4;overflow=hidden;rotatable=0;points=[[0,0.5],[1,0.5]];portConstraint=eastwest;whiteSpace=wrap;html=1;" vertex="1" parent="kS1ZVvwmEGQouYJON_11-64">
          <mxGeometry y="26" width="130" height="26" as="geometry" />
        </mxCell>
        <mxCell id="kS1ZVvwmEGQouYJON_11-68" value="buildFileService" style="html=1;verticalAlign=bottom;endArrow=block;curved=0;rounded=0;entryX=0.985;entryY=-0.038;entryDx=0;entryDy=0;exitX=0;exitY=0.5;exitDx=0;exitDy=0;entryPerimeter=0;" edge="1" parent="1" source="kS1ZVvwmEGQouYJON_11-20" target="kS1ZVvwmEGQouYJON_11-67">
          <mxGeometry x="0.6304" y="25" width="80" relative="1" as="geometry">
            <mxPoint x="550" y="349" as="sourcePoint" />
            <mxPoint x="733" y="256" as="targetPoint" />
            <mxPoint as="offset" />
            <Array as="points">
              <mxPoint x="330" y="339" />
              <mxPoint x="330" y="290" />
              <mxPoint x="330" y="245" />
            </Array>
          </mxGeometry>
        </mxCell>
        <mxCell id="kS1ZVvwmEGQouYJON_11-69" value="RunHistoryService" style="swimlane;fontStyle=1;align=center;verticalAlign=top;childLayout=stackLayout;horizontal=1;startSize=26;horizontalStack=0;resizeParent=1;resizeParentMax=0;resizeLast=0;collapsible=1;marginBottom=0;whiteSpace=wrap;html=1;" vertex="1" parent="1">
          <mxGeometry x="700" y="116" width="140" height="70" as="geometry" />
        </mxCell>
        <mxCell id="kS1ZVvwmEGQouYJON_11-70" value="+ create()&lt;div&gt;+ complete()&lt;br&gt;&lt;/div&gt;" style="text;strokeColor=none;fillColor=none;align=left;verticalAlign=top;spacingLeft=4;spacingRight=4;overflow=hidden;rotatable=0;points=[[0,0.5],[1,0.5]];portConstraint=eastwest;whiteSpace=wrap;html=1;" vertex="1" parent="kS1ZVvwmEGQouYJON_11-69">
          <mxGeometry y="26" width="140" height="44" as="geometry" />
        </mxCell>
        <mxCell id="kS1ZVvwmEGQouYJON_11-71" value="runHistoryService" style="html=1;verticalAlign=bottom;endArrow=block;curved=0;rounded=0;entryX=0;entryY=0.5;entryDx=0;entryDy=0;exitX=1;exitY=0.5;exitDx=0;exitDy=0;" edge="1" parent="1" source="kS1ZVvwmEGQouYJON_11-14" target="kS1ZVvwmEGQouYJON_11-70">
          <mxGeometry x="0.493" y="-17" width="80" relative="1" as="geometry">
            <mxPoint x="550" y="349" as="sourcePoint" />
            <mxPoint x="736" y="258" as="targetPoint" />
            <mxPoint as="offset" />
            <Array as="points">
              <mxPoint x="590" y="196" />
              <mxPoint x="590" y="163" />
            </Array>
          </mxGeometry>
        </mxCell>
      </root>
    </mxGraphModel>
  </diagram>
</mxfile>
